<svg xmlns="http://www.w3.org/2000/svg"  width="23.996" height="16.112" viewBox="0 0 30 19">
    <g fill="none" fill-rule="nonzero">
        <path fill="#41479B" d="M27.753 18.75H2.247C1.006 18.75 0 17.79 0 16.607V2.143C0 .96 1.006 0 2.247 0h25.506C28.994 0 30 .96 30 2.143v14.464c0 1.183-1.006 2.143-2.247 2.143z"/>
        <path fill="#F5F5F5" d="M29.969 16.961c-.177 1.015-1.102 1.789-2.216 1.789h-.584l-9.583-5.989v5.989h-5.172v-5.99L2.83 18.75h-.584c-1.114 0-2.039-.774-2.216-1.79l8.19-5.118H0V6.908h8.221L.031 1.789C.208.774 1.133 0 2.247 0h.584l9.583 5.989V0h5.172v5.989L27.17 0h.584c1.114 0 2.039.774 2.216 1.789l-8.19 5.119H30v4.934h-8.221l8.19 5.119z"/>
        <g fill="#FF4B55">
            <path d="M16.552 18.735h-3.104v-7.882H0V7.897h13.448V.015h3.104v7.882H30v2.956H16.552z"/>
            <path d="M1.453.153l10.932 6.759h-1.9L.54.764c.244-.27.557-.482.913-.61zM20.296 6.912h-1.9L28.985.366c.296.185.543.436.72.73l-9.409 5.816zM.237 17.552l9.242-5.714h1.9L.907 18.312c-.281-.199-.512-.46-.67-.76zM19.486 11.838l9.963 6.16c-.246.269-.56.48-.92.605l-10.943-6.765h1.9z"/>
        </g>
    </g>
</svg>
